<svg xmlns="http://www.w3.org/2000/svg" version="1.1" xmlns:xlink="http://www.w3.org/1999/xlink" xmlns:svgjs="http://svgjs.dev/svgjs" width="1500" height="935" viewBox="0 0 1500 935"><g transform="matrix(1,0,0,1,-0.9090909090909918,0.3785425101214628)"><svg viewBox="0 0 396 247" data-background-color="#ffffff" preserveAspectRatio="xMidYMid meet" height="935" width="1500" xmlns="http://www.w3.org/2000/svg" xmlns:xlink="http://www.w3.org/1999/xlink"><g id="tight-bounds" transform="matrix(1,0,0,1,0.2400000000000091,-0.09999999999999432)"><svg viewBox="0 0 395.52 247.2" height="247.2" width="395.52"><g><svg></svg></g><g><svg viewBox="0 0 395.52 247.2" height="247.2" width="395.52"><mask id="44ee4944-4444-488e-bad7-20322614ae1f"><rect width="395.52" height="247.2" fill="white"></rect><g transform="matrix(1,0,0,1,0,47.87945105215006)" id="clone"><svg viewBox="0 0 395.52 151.44109789569987" height="151.44109789569987" width="395.52"><g><svg viewBox="0 0 395.52 151.44109789569987" height="151.44109789569987" width="395.52"><g><svg viewBox="0 0 395.52 151.44109789569987" height="151.44109789569987" width="395.52"><g><svg viewBox="0 0 395.52 151.44109789569987" height="151.44109789569987" width="395.52"><g id="SvgjsG4587"><svg viewBox="0 0 395.52 151.44109789569987" height="151.44109789569987" width="395.52" id="SvgjsSvg4586"><g><svg viewBox="0 0 395.52 151.44109789569987" height="151.44109789569987" width="395.52"><g transform="matrix(1,0,0,1,0,0)"><svg width="395.52" viewBox="-0.4500000000000002 -39.5 110.29 42.85" height="151.44109789569987" data-palette-color="#050c9c"><path d="M13.35 0.35L13.35 0.35Q8.8 0.35 5.9-1.35 3-3.05 3-6.9L3-6.9Q3-7.3 3.03-7.63 3.05-7.95 3.1-8.15L3.1-8.15Q3.3-9.55 3.95-11.6 4.6-13.65 5.45-15.98 6.3-18.3 7.1-20.55 7.9-22.8 8.45-24.68 9-26.55 9-27.7L9-27.7Q9-29 8.15-29L8.15-29Q7.2-29 5.8-27.58 4.4-26.15 2.85-23.6L2.85-23.6 2.55-23.75Q2.55-27.05 3.85-29.45 5.15-31.85 7.3-33.43 9.45-35 12.1-35.75 14.75-36.5 17.45-36.5L17.45-36.5Q20.8-36.5 23.75-35.43 26.7-34.35 28.58-32.35 30.45-30.35 30.45-27.45L30.45-27.45Q30.45-22.25 24.1-19.35L24.1-19.35Q27.85-18.5 29.6-16.5 31.35-14.5 31.35-12.05L31.35-12.05Q31.35-9.9 30.08-7.73 28.8-5.55 26.45-3.73 24.1-1.9 20.78-0.78 17.45 0.35 13.35 0.35ZM15.3-20.85L15.3-20.85Q17.6-20.8 19.33-21.58 21.05-22.35 22.03-23.58 23-24.8 23-26.1L23-26.1Q23-27.8 21.2-29.13 19.4-30.45 15.55-30.45L15.55-30.45Q15.75-29.5 15.83-28.55 15.9-27.6 15.9-26.7L15.9-26.7Q15.9-25.25 15.73-23.8 15.55-22.35 15.3-20.85ZM14.75-5.75L14.75-5.75Q16.9-5.75 18.55-6.63 20.2-7.5 21.15-8.88 22.1-10.25 22.1-11.7L22.1-11.7Q22.1-13.7 20.2-15.4 18.3-17.1 14.25-17.5L14.25-17.5Q14.05-15.95 13.43-14.2 12.8-12.45 12.25-10.85 11.7-9.25 11.7-8.05L11.7-8.05Q11.7-7 12.35-6.38 13-5.75 14.75-5.75ZM43.8-26.75L43.8-26.75Q41.8-26.75 40.52-27.98 39.25-29.2 39.25-31.05L39.25-31.05Q39.25-33.05 40.75-34.5 42.25-35.95 44.4-35.95L44.4-35.95Q46.4-35.95 47.67-34.7 48.95-33.45 48.95-31.6L48.95-31.6Q48.95-29.6 47.45-28.18 45.95-26.75 43.8-26.75ZM40.3 0.2L40.3 0.2Q38.35 0.2 36.8-1.18 35.25-2.55 35.25-5.6L35.25-5.6Q35.25-7.35 35.72-8.88 36.2-10.4 36.82-11.85 37.45-13.3 37.92-14.68 38.4-16.05 38.4-17.4L38.4-17.4Q38.4-18.6 38-19.13 37.6-19.65 37.05-19.65L37.05-19.65Q36.2-19.65 35.4-18.55L35.4-18.55 35.05-18.75Q35.25-20.75 36.32-22.18 37.4-23.6 38.97-24.4 40.55-25.2 42.1-25.2L42.1-25.2Q44-25.2 45.4-23.98 46.8-22.75 46.8-20L46.8-20Q46.8-18.35 46.32-16.53 45.85-14.7 45.22-12.9 44.6-11.1 44.12-9.55 43.65-8 43.65-6.9L43.65-6.9Q43.65-5.95 44.02-5.55 44.4-5.15 44.85-5.15L44.85-5.15Q45.3-5.15 45.72-5.43 46.15-5.7 46.35-6.05L46.35-6.05 46.7-5.95Q46.7-4.1 45.72-2.73 44.75-1.35 43.3-0.58 41.85 0.2 40.3 0.2ZM56.35 0.2L56.35 0.2Q55 0.2 53.72-0.48 52.45-1.15 51.65-2.65 50.85-4.15 50.85-6.5L50.85-6.5Q50.85-8.6 51.42-11.43 52-14.25 52.72-17.3 53.45-20.35 54-23.25 54.55-26.15 54.5-28.4L54.5-28.4Q54.5-30.55 54-31.45L54-31.45 53.95-31.6Q54.5-33.2 55.9-34.1 57.3-35 58.85-35L58.85-35Q60.6-35 61.97-33.68 63.35-32.35 63.35-29.25L63.35-29.25Q63.35-27.6 62.95-25.33 62.55-23.05 62-20.48 61.45-17.9 60.87-15.4 60.3-12.9 59.9-10.8 59.5-8.7 59.5-7.35L59.5-7.35Q59.5-5.95 59.9-5.43 60.3-4.9 60.8-4.9L60.8-4.9Q61.35-4.9 61.85-5.33 62.35-5.75 62.5-6.1L62.5-6.1 62.9-6Q62.85-4.2 61.87-2.8 60.9-1.4 59.42-0.6 57.95 0.2 56.35 0.2ZM84.14 0.25L84.14 0.25Q82.39 0.25 81.09-0.9 79.79-2.05 79.79-4.65L79.79-4.65Q79.79-4.9 79.79-5.15 79.79-5.4 79.84-5.65L79.84-5.65Q78.34-2.65 76.47-1.23 74.59 0.2 72.69 0.2L72.69 0.2Q70.94 0.2 69.39-1.03 67.84-2.25 66.89-4.65 65.94-7.05 65.94-10.45L65.94-10.45Q65.94-13.95 66.92-16.7 67.89-19.45 69.49-21.35 71.09-23.25 72.99-24.23 74.89-25.2 76.69-25.2L76.69-25.2Q78.69-25.2 80.29-23.98 81.89-22.75 82.49-20.1L82.49-20.1Q82.64-20.95 82.72-21.65 82.79-22.35 82.79-22.6L82.79-22.6Q82.84-23.95 84.17-24.6 85.49-25.25 87.09-25.25L87.09-25.25Q88.49-25.25 89.74-24.7 90.99-24.15 91.44-22.85L91.44-22.85 91.54-22.55Q90.94-21.2 90.34-19.3 89.74-17.4 89.24-15.33 88.74-13.25 88.44-11.28 88.14-9.3 88.14-7.8L88.14-7.8Q88.14-6.15 88.49-5.53 88.84-4.9 89.34-4.9L89.34-4.9Q90.19-4.9 90.89-6.1L90.89-6.1 91.29-5.9Q91.29-4.2 90.19-2.8 89.09-1.4 87.44-0.58 85.79 0.25 84.14 0.25ZM75.99-6.1L75.99-6.1Q77.29-6.1 78.87-8.43 80.44-10.75 81.59-15.1L81.59-15.1Q81.69-15.55 81.79-15.98 81.89-16.4 81.94-16.8L81.94-16.8Q81.14-18.65 80.27-19.43 79.39-20.2 78.54-20.2L78.54-20.2Q77.29-20.2 76.22-18.88 75.14-17.55 74.47-15.55 73.79-13.55 73.79-11.55L73.79-11.55Q73.79-8.8 74.42-7.45 75.04-6.1 75.99-6.1ZM99.84 0.2L99.84 0.2Q98.49 0.2 97.22-0.48 95.94-1.15 95.14-2.65 94.34-4.15 94.34-6.5L94.34-6.5Q94.34-8.6 94.92-11.43 95.49-14.25 96.22-17.3 96.94-20.35 97.49-23.25 98.04-26.15 97.99-28.4L97.99-28.4Q97.99-30.55 97.49-31.45L97.49-31.45 97.44-31.6Q97.99-33.2 99.39-34.1 100.79-35 102.34-35L102.34-35Q104.09-35 105.47-33.68 106.84-32.35 106.84-29.25L106.84-29.25Q106.84-27.6 106.44-25.33 106.04-23.05 105.49-20.48 104.94-17.9 104.37-15.4 103.79-12.9 103.39-10.8 102.99-8.7 102.99-7.35L102.99-7.35Q102.99-5.95 103.39-5.43 103.79-4.9 104.29-4.9L104.29-4.9Q104.84-4.9 105.34-5.33 105.84-5.75 105.99-6.1L105.99-6.1 106.39-6Q106.34-4.2 105.37-2.8 104.39-1.4 102.92-0.6 101.44 0.2 99.84 0.2Z" opacity="1" transform="matrix(1,0,0,1,0,0)" fill="black" class="wordmark-text-0" id="SvgjsPath4585" stroke-width="5" stroke="black" stroke-linejoin="round"></path></svg></g></svg></g></svg></g></svg></g></svg></g></svg></g></svg></g></mask><g mask="url(#44ee4944-4444-488e-bad7-20322614ae1f)"><g><path d="M173.61 247.2v0c-20.348 0-37.007-3.801-49.976-11.404-12.969-7.603-19.454-20.013-19.454-37.231v0c0-1.789 0.067-3.421 0.201-4.897 0.089-1.431 0.246-2.594 0.469-3.488v0c0.894-6.261 2.795-13.976 5.702-23.144 2.907-9.168 6.261-18.962 10.063-29.382 3.801-10.375 7.491-20.594 11.068-30.657 3.578-10.062 6.596-19.297 9.057-27.705 2.46-8.363 3.69-15.116 3.689-20.259v0c0-5.814-1.901-8.721-5.702-8.721v0c-4.249 0-9.503 3.175-15.764 9.526-6.261 6.395-12.858 15.295-19.79 26.699v0l-2.012-1.006c0-14.758 2.907-27.504 8.721-38.238 5.814-10.733 13.528-19.633 23.143-26.699 9.615-7.021 20.348-12.209 32.2-15.563 11.851-3.354 23.814-5.031 35.889-5.031v0c14.982 0 29.069 2.393 42.262 7.178 13.193 4.83 23.993 11.717 32.401 20.661 8.363 8.944 12.544 19.901 12.545 32.871v0c0 23.255-14.199 41.368-42.598 54.337v0c16.771 3.801 29.069 10.174 36.896 19.119 7.826 8.944 11.739 18.895 11.739 29.851v0c0 9.615-2.84 19.275-8.519 28.98-5.724 9.749-13.841 18.694-24.351 26.833-10.51 8.184-23.188 14.781-38.036 19.79-14.892 5.054-31.507 7.58-49.843 7.58zM186.691 104.985v0c10.286 0.224 19.297-1.409 27.035-4.898 7.692-3.444 13.73-7.916 18.112-13.416 4.338-5.456 6.507-11.091 6.507-16.905v0c0-7.603-4.025-14.378-12.075-20.326-8.05-5.903-20.684-8.855-37.902-8.855v0c0.894 4.249 1.521 8.497 1.879 12.746 0.313 4.249 0.47 8.385 0.469 12.41v0c0 6.485-0.38 12.969-1.14 19.454-0.805 6.485-1.767 13.081-2.885 19.79zM183.002 206.28v0c9.615 0 18.112-1.968 25.491-5.904 7.379-3.891 13.193-8.922 17.442-15.093 4.249-6.127 6.373-12.433 6.373-18.918v0c0-8.944-4.249-17.218-12.746-24.82-8.497-7.603-21.802-12.299-39.914-14.088v0c-0.894 6.932-2.728 14.311-5.501 22.138-2.817 7.826-5.456 15.317-7.916 22.472-2.46 7.155-3.69 13.417-3.689 18.783v0c0 4.696 1.453 8.43 4.36 11.203 2.907 2.817 8.274 4.226 16.1 4.227z" fill="#f6f5f2" fill-rule="nonzero" stroke="none" stroke-width="1" stroke-linecap="butt" stroke-linejoin="miter" stroke-miterlimit="10" stroke-dasharray="" stroke-dashoffset="0" font-family="none" font-weight="none" font-size="none" text-anchor="none" style="mix-blend-mode: normal" data-fill-palette-color="tertiary"></path></g></g><g transform="matrix(1,0,0,1,0,47.87945105215006)"><svg viewBox="0 0 395.52 151.44109789569987" height="151.44109789569987" width="395.52"><g><svg viewBox="0 0 395.52 151.44109789569987" height="151.44109789569987" width="395.52"><g><svg viewBox="0 0 395.52 151.44109789569987" height="151.44109789569987" width="395.52"><g><svg viewBox="0 0 395.52 151.44109789569987" height="151.44109789569987" width="395.52"><g id="textblocktransform"><svg viewBox="0 0 395.52 151.44109789569987" height="151.44109789569987" width="395.52" id="textblock"><g><svg viewBox="0 0 395.52 151.44109789569987" height="151.44109789569987" width="395.52"><g transform="matrix(1,0,0,1,0,0)"><svg width="395.52" viewBox="-0.4500000000000002 -39.5 110.29 42.85" height="151.44109789569987" data-palette-color="#050c9c"><path d="M13.35 0.35L13.35 0.35Q8.8 0.35 5.9-1.35 3-3.05 3-6.9L3-6.9Q3-7.3 3.03-7.63 3.05-7.95 3.1-8.15L3.1-8.15Q3.3-9.55 3.95-11.6 4.6-13.65 5.45-15.98 6.3-18.3 7.1-20.55 7.9-22.8 8.45-24.68 9-26.55 9-27.7L9-27.7Q9-29 8.15-29L8.15-29Q7.2-29 5.8-27.58 4.4-26.15 2.85-23.6L2.85-23.6 2.55-23.75Q2.55-27.05 3.85-29.45 5.15-31.85 7.3-33.43 9.45-35 12.1-35.75 14.75-36.5 17.45-36.5L17.45-36.5Q20.8-36.5 23.75-35.43 26.7-34.35 28.58-32.35 30.45-30.35 30.45-27.45L30.45-27.45Q30.45-22.25 24.1-19.35L24.1-19.35Q27.85-18.5 29.6-16.5 31.35-14.5 31.35-12.05L31.35-12.05Q31.35-9.9 30.08-7.73 28.8-5.55 26.45-3.73 24.1-1.9 20.78-0.78 17.45 0.35 13.35 0.35ZM15.3-20.85L15.3-20.85Q17.6-20.8 19.33-21.58 21.05-22.35 22.03-23.58 23-24.8 23-26.1L23-26.1Q23-27.8 21.2-29.13 19.4-30.45 15.55-30.45L15.55-30.45Q15.75-29.5 15.83-28.55 15.9-27.6 15.9-26.7L15.9-26.7Q15.9-25.25 15.73-23.8 15.55-22.35 15.3-20.85ZM14.75-5.75L14.75-5.75Q16.9-5.75 18.55-6.63 20.2-7.5 21.15-8.88 22.1-10.25 22.1-11.7L22.1-11.7Q22.1-13.7 20.2-15.4 18.3-17.1 14.25-17.5L14.25-17.5Q14.05-15.95 13.43-14.2 12.8-12.45 12.25-10.85 11.7-9.25 11.7-8.05L11.7-8.05Q11.7-7 12.35-6.38 13-5.75 14.75-5.75ZM43.8-26.75L43.8-26.75Q41.8-26.75 40.52-27.98 39.25-29.2 39.25-31.05L39.25-31.05Q39.25-33.05 40.75-34.5 42.25-35.95 44.4-35.95L44.4-35.95Q46.4-35.95 47.67-34.7 48.95-33.45 48.95-31.6L48.95-31.6Q48.95-29.6 47.45-28.18 45.95-26.75 43.8-26.75ZM40.3 0.2L40.3 0.2Q38.35 0.2 36.8-1.18 35.25-2.55 35.25-5.6L35.25-5.6Q35.25-7.35 35.72-8.88 36.2-10.4 36.82-11.85 37.45-13.3 37.92-14.68 38.4-16.05 38.4-17.4L38.4-17.4Q38.4-18.6 38-19.13 37.6-19.65 37.05-19.65L37.05-19.65Q36.2-19.65 35.4-18.55L35.4-18.55 35.05-18.75Q35.25-20.75 36.32-22.18 37.4-23.6 38.97-24.4 40.55-25.2 42.1-25.2L42.1-25.2Q44-25.2 45.4-23.98 46.8-22.75 46.8-20L46.8-20Q46.8-18.35 46.32-16.53 45.85-14.7 45.22-12.9 44.6-11.1 44.12-9.55 43.65-8 43.65-6.9L43.65-6.9Q43.65-5.95 44.02-5.55 44.4-5.15 44.85-5.15L44.85-5.15Q45.3-5.15 45.72-5.43 46.15-5.7 46.35-6.05L46.35-6.05 46.7-5.95Q46.7-4.1 45.72-2.73 44.75-1.35 43.3-0.58 41.85 0.2 40.3 0.2ZM56.35 0.2L56.35 0.2Q55 0.2 53.72-0.48 52.45-1.15 51.65-2.65 50.85-4.15 50.85-6.5L50.85-6.5Q50.85-8.6 51.42-11.43 52-14.25 52.72-17.3 53.45-20.35 54-23.25 54.55-26.15 54.5-28.4L54.5-28.4Q54.5-30.55 54-31.45L54-31.45 53.95-31.6Q54.5-33.2 55.9-34.1 57.3-35 58.85-35L58.85-35Q60.6-35 61.97-33.68 63.35-32.35 63.35-29.25L63.35-29.25Q63.35-27.6 62.95-25.33 62.55-23.05 62-20.48 61.45-17.9 60.87-15.4 60.3-12.9 59.9-10.8 59.5-8.7 59.5-7.35L59.5-7.35Q59.5-5.95 59.9-5.43 60.3-4.9 60.8-4.9L60.8-4.9Q61.35-4.9 61.85-5.33 62.35-5.75 62.5-6.1L62.5-6.1 62.9-6Q62.85-4.2 61.87-2.8 60.9-1.4 59.42-0.6 57.95 0.2 56.35 0.2ZM84.14 0.25L84.14 0.25Q82.39 0.25 81.09-0.9 79.79-2.05 79.79-4.65L79.79-4.65Q79.79-4.9 79.79-5.15 79.79-5.4 79.84-5.65L79.84-5.65Q78.34-2.65 76.47-1.23 74.59 0.2 72.69 0.2L72.69 0.2Q70.94 0.2 69.39-1.03 67.84-2.25 66.89-4.65 65.94-7.05 65.94-10.45L65.94-10.45Q65.94-13.95 66.92-16.7 67.89-19.45 69.49-21.35 71.09-23.25 72.99-24.23 74.89-25.2 76.69-25.2L76.69-25.2Q78.69-25.2 80.29-23.98 81.89-22.75 82.49-20.1L82.49-20.1Q82.64-20.95 82.72-21.65 82.79-22.35 82.79-22.6L82.79-22.6Q82.84-23.95 84.17-24.6 85.49-25.25 87.09-25.25L87.09-25.25Q88.49-25.25 89.74-24.7 90.99-24.15 91.44-22.85L91.44-22.85 91.54-22.55Q90.94-21.2 90.34-19.3 89.74-17.4 89.24-15.33 88.74-13.25 88.44-11.28 88.14-9.3 88.14-7.8L88.14-7.8Q88.14-6.15 88.49-5.53 88.84-4.9 89.34-4.9L89.34-4.9Q90.19-4.9 90.89-6.1L90.89-6.1 91.29-5.9Q91.29-4.2 90.19-2.8 89.09-1.4 87.44-0.58 85.79 0.25 84.14 0.25ZM75.99-6.1L75.99-6.1Q77.29-6.1 78.87-8.43 80.44-10.75 81.59-15.1L81.59-15.1Q81.69-15.55 81.79-15.98 81.89-16.4 81.94-16.8L81.94-16.8Q81.14-18.65 80.27-19.43 79.39-20.2 78.54-20.2L78.54-20.2Q77.29-20.2 76.22-18.88 75.14-17.55 74.47-15.55 73.79-13.55 73.79-11.55L73.79-11.55Q73.79-8.8 74.42-7.45 75.04-6.1 75.99-6.1ZM99.84 0.2L99.84 0.2Q98.49 0.2 97.22-0.48 95.94-1.15 95.14-2.65 94.34-4.15 94.34-6.5L94.34-6.5Q94.34-8.6 94.92-11.43 95.49-14.25 96.22-17.3 96.94-20.35 97.49-23.25 98.04-26.15 97.99-28.4L97.99-28.4Q97.99-30.55 97.49-31.45L97.49-31.45 97.44-31.6Q97.99-33.2 99.39-34.1 100.79-35 102.34-35L102.34-35Q104.09-35 105.47-33.68 106.84-32.35 106.84-29.25L106.84-29.25Q106.84-27.6 106.44-25.33 106.04-23.05 105.49-20.48 104.94-17.9 104.37-15.4 103.79-12.9 103.39-10.8 102.99-8.7 102.99-7.35L102.99-7.35Q102.99-5.95 103.39-5.43 103.79-4.9 104.29-4.9L104.29-4.9Q104.84-4.9 105.34-5.33 105.84-5.75 105.99-6.1L105.99-6.1 106.39-6Q106.34-4.2 105.37-2.8 104.39-1.4 102.92-0.6 101.44 0.2 99.84 0.2Z" opacity="1" transform="matrix(1,0,0,1,0,0)" fill="#050c9c" class="wordmark-text-0" data-fill-palette-color="primary" id="text-0"></path></svg></g></svg></g></svg></g></svg></g></svg></g></svg></g></svg></g></svg></g><defs></defs></svg><rect width="395.52" height="247.2" fill="none" stroke="none" visibility="hidden"></rect></g></svg></g></svg>